# xmcd
#
# Track frame offsets:
#	150
#	3040
#	22557
#	44788
#	65675
#	87640
#	95795
#
# Disc length: 1726 seconds
#
# Revision: 1
# Processed by: cddbd v1.5.2PL0 Copyright (c) Steve Scherf et al.
# Submitted via: audiograbber 1.83.01
#
DISCID=5306bc07
DTITLE=Redcraving - Lethargic, Way Too Late
DYEAR=2009
DGENRE=Metal
TTITLE0=Introduction
TTITLE1=We sleep in silence
TTITLE2=Delete
TTITLE3=The delayed
TTITLE4=His Queen as well
TTITLE5=Seperate
TTITLE6=The gorge
EXTD=
EXTT0=
EXTT1=
EXTT2=
EXTT3=
EXTT4=
EXTT5=
EXTT6=
PLAYORDER=
